<svg id="Layer_1" data-name="Layer 1" xmlns="http://www.w3.org/2000/svg" viewBox="0 0 560 560"><defs><style>.cls-1{fill:#ffd96a;}.cls-2{fill:#707071;}</style></defs><path class="cls-1" d="M436.2,410.11a28.88,28.88,0,0,0-27.57-20.31,29.36,29.36,0,0,0-8.81,1.35,28.9,28.9,0,0,0-18.76,19h11.36a18.07,18.07,0,0,1,7.4-7.55,18.35,18.35,0,0,1,25,7.55,17.91,17.91,0,0,1,2.13,8.55,18.36,18.36,0,0,1-27.15,16.1v11.42a29.36,29.36,0,0,0,8.81,1.34,28.88,28.88,0,0,0,27.57-37.41Z"/><polygon class="cls-1" points="394.21 415.44 394.21 440.09 385.4 447.58 385.4 424.38 378.81 424.44 363.61 424.52 367.09 418.38 368.74 415.44 394.21 415.44"/><path class="cls-1" d="M390.09,415.44H368.74l-1.65,2.94-3.48,6.14,11.44,0,3.76,0a18.7,18.7,0,0,1-2.52,4.91,18.35,18.35,0,1,1-.11-21.52l.08-.05a33.82,33.82,0,0,1,5.19-9.88,28.89,28.89,0,1,0,.11,41.35,27.9,27.9,0,0,0,3.84-4.6,28.42,28.42,0,0,0,4.86-16V418C390.23,417.12,390.17,416.28,390.09,415.44Z"/><path class="cls-1" d="M379.74,418.66a18.71,18.71,0,0,1-.93,5.78l-15.2.08,3.48-6.14,1.65-2.94h10.72a14.41,14.41,0,0,1,.25,2.72A2.74,2.74,0,0,1,379.74,418.66Z"/><path class="cls-2" d="M122.51,390.22h32.63v10.27H133.25v13.28h21.89V424H133.25V447.9H122.51Z"/><path class="cls-2" d="M185.26,448a24.83,24.83,0,0,1-8.3-1.33,18.69,18.69,0,0,1-6.6-3.9,17.26,17.26,0,0,1-4.34-6.4,23.42,23.42,0,0,1-1.54-8.82V390.22h10.74v37.84A10.26,10.26,0,0,0,176,432a9.52,9.52,0,0,0,2.09,3.16,10.19,10.19,0,0,0,3.17,2.1,10.52,10.52,0,0,0,7.9,0,10.7,10.7,0,0,0,3.2-2.1,9.79,9.79,0,0,0,3-7.09V390.22H206v37.31a23,23,0,0,1-1.58,8.82,17.71,17.71,0,0,1-10.91,10.3A24.81,24.81,0,0,1,185.26,448Z"/><path class="cls-2" d="M215.67,390.22h12.17l25,39.27V390.22h10.74V447.9H252.09l-25.67-40.53V447.9H215.67Z"/><path class="cls-2" d="M273,390.22h15.73a35.62,35.62,0,0,1,12.95,2.21,27.69,27.69,0,0,1,9.6,6.09,25.48,25.48,0,0,1,5.93,9.12,31.73,31.73,0,0,1,2,11.42A29.34,29.34,0,0,1,317,430.52a26.69,26.69,0,0,1-6.2,9.12,29.23,29.23,0,0,1-9.52,6.05,32.38,32.38,0,0,1-12.09,2.21H273Zm10.75,10v37.76h4.19a24.11,24.11,0,0,0,8.53-1.42,18,18,0,0,0,10.55-10,19,19,0,0,0,1.46-7.47,21.75,21.75,0,0,0-1.27-7.62,15.73,15.73,0,0,0-3.87-6,17.68,17.68,0,0,0-6.55-3.91,28.39,28.39,0,0,0-9.33-1.38Z"/><path class="cls-2" d="M252.31,286.49a25.51,25.51,0,0,1-9.6,9.55v0A25.64,25.64,0,0,1,207,284.85,50.91,50.91,0,0,0,245.66,289,47.23,47.23,0,0,0,252.31,286.49Z"/><path class="cls-2" d="M387.91,339.39a50,50,0,0,1-.4,6.27h0a1.69,1.69,0,0,1,0,.3.39.39,0,0,1,0,.15.89.89,0,0,0,0,.14.1.1,0,0,1,0,.07v0a2.45,2.45,0,0,1-2.38,1.77,2.48,2.48,0,0,1-2.49-2.47,2.07,2.07,0,0,1,0-.5,36.55,36.55,0,0,0,1.05-8.76,37,37,0,0,0-37-37,36,36,0,0,0-5.63.43c-.16,0-.33.06-.48.07a.22.22,0,0,1-.11,0l-.83.16-.39.08c-.94.18-1.87.35-2.8.54s-1.89.36-2.82.57c-1.54.31-3.07.62-4.61.95l-1.85.4c-1.56.34-3.13.69-4.67,1.05l-4.54,1q-8.79,2.13-17.41,4.58l-5.43,1.57A451.09,451.09,0,0,0,169.72,370.5a2.42,2.42,0,0,1-1.4.43,2.48,2.48,0,0,1-1-4.73l.17-.07a132.9,132.9,0,0,0,56.32-39.84,34.91,34.91,0,0,0,20.06-9.22,132.83,132.83,0,0,1,97.63-28.3h.1l1.07.11a7.84,7.84,0,0,1,1.07.14l1.63.22a.27.27,0,0,1,.12,0,49.8,49.8,0,0,1,18.36,6.91h0A50.73,50.73,0,0,1,387.91,339.39Z"/><path class="cls-2" d="M393.48,234.46c-.56-.33-1.11-.66-1.66-1A117.84,117.84,0,0,1,370,216.23l-.17-.17c-.82-.81-1.61-1.64-2.39-2.47-.34-.36-.67-.71-1-1.07q-3-3.32-5.78-6.78a117.6,117.6,0,0,1-8.37-12.1c-.33-.54-.66-1.08-1-1.63,0,0,0,0,0,0q-1.69-2.9-3.19-5.87h0a80.08,80.08,0,0,0-12.08-15.48l-.76-.74c-1.63-1.6-3.32-3.1-5.05-4.53a79.33,79.33,0,0,0-31-15.67l-.7-.18A54.47,54.47,0,0,1,259.82,112a54.56,54.56,0,0,0,33.47,40.77h0l.26.09.12,0c.71.25,1.43.51,2.14.78l.38.15a79.59,79.59,0,0,1,27.72,18.06c.64.64,1.26,1.28,1.87,1.94.41.44.82.88,1.21,1.33.23.24.45.49.66.74s.37.42.55.64l0,0,.68.82a77.33,77.33,0,0,1,5.82,7.95c.39.6.77,1.21,1.14,1.82l.07.12.48.8h0l.4.71c.4.69.78,1.39,1.16,2.09,0,0,0,0,0,0a82,82,0,0,1,3.61,7.81c.06.17.13.35.2.52s0,.15.08.22l.18.45c.08.2.15.4.22.6.27.71.53,1.42.76,2.13.1.27.19.53.27.8.26.77.5,1.53.72,2.32,0,.09.05.18.08.27s.12.37.17.55a.16.16,0,0,0,0-.07.14.14,0,0,1,0,.06c-.32-.68-.67-1.36-1.06-2l-.05-.09s0,0,0,0c-.2-.34-.41-.68-.62-1s-.45-.68-.68-1-.48-.67-.73-1l-.38-.48-.4-.48a5.85,5.85,0,0,0-.4-.47l-.42-.47-.43-.46-.41-.42,0,0-.74-.71-.61-.56-.06,0-.71-.6-.48-.38-.05,0-.11-.08-.5-.38-.46-.33-.46-.31h0c-.07-.06-.16-.11-.24-.17l-1.12-.7-.57-.33c-.58-.33-1.16-.63-1.75-.91l-.74-.34-.75-.32-1.11-.42a27,27,0,0,0-3.51-1,22,22,0,0,0,.79,4.1,1.29,1.29,0,0,0,.07.21c.21.67.46,1.34.71,2l0,.06c.11.26.23.52.35.77h0c0,.08.08.18.12.26.12.26.25.53.39.78a.05.05,0,0,1,0,0l.27.48,0,0,.34.56c.13.22.26.43.4.64s.2.3.31.46a4.84,4.84,0,0,0,.33.46h0c.09.12.18.23.26.35s0,0,0,0c.13.17.25.34.39.5s.18.22.28.32a.22.22,0,0,0,.07.09,6,6,0,0,0,.41.47c.22.25.47.51.71.75l0,0,.62.59.26.24.51.45.72.58c.5.38,1,.74,1.51,1.07l.78.48c.52.3,1.06.59,1.6.85l0,0,.93.41.09,0,.15.08h0c.2.09.39.18.57.28s.5.25.75.38l.42.22.35.2a.21.21,0,0,1,.1.06,4.39,4.39,0,0,1,.47.27l.08,0,.05,0h0c.22.13.44.25.65.39s.61.38.9.58a10.22,10.22,0,0,1,.87.59h0l.14.11.51.36.64.49c.24.18.47.37.7.56s.43.35.64.53l0,0h0l.69.62q.68.6,1.32,1.26c.33.33.66.66,1,1,.09.09.17.19.25.28a34.55,34.55,0,0,1,4,5.3,34.91,34.91,0,0,1,4,9.33,32.89,32.89,0,0,0-5.61-7.82c-.15-.18-.32-.34-.48-.5A31.56,31.56,0,0,0,348,221c-.29-.22-.59-.45-.89-.66.05.14.11.28.16.43l.08.21c.19.42.37.83.55,1.25h0a40.42,40.42,0,0,1,1.22,28l-.06.2a32.9,32.9,0,0,1-1.51,3.89,0,0,0,0,1,0,0,40.32,40.32,0,0,1-45.23,22.85h0a39.94,39.94,0,0,1-4.62-1.29,49.69,49.69,0,0,0-8.25-1.17l-.13-.1-.39,0c-.82,0-1.65-.06-2.48-.06A50.57,50.57,0,0,0,255.63,285a50.94,50.94,0,0,1,43-4.86h0c.66.22,1.31.46,2,.71h0a40.3,40.3,0,0,0,12.77,2.07h1a40.3,40.3,0,0,0,12.9-2.45l.2-.07.79-.3.64-.26.28-.12a39.44,39.44,0,0,0,5.59-2.9l.26-.16a40.37,40.37,0,0,0,16.06-19.54c.09-.28.2-.56.3-.83l0,0A25.76,25.76,0,0,1,365.24,242l.09,0a25.74,25.74,0,0,1,18.37-.62,19.31,19.31,0,0,0,8.2-1.13h0a4.37,4.37,0,0,0,.46-.18,3.32,3.32,0,0,0,1-.7A3.53,3.53,0,0,0,393.48,234.46Z"/><circle class="cls-2" cx="359.95" cy="346.92" r="2.48"/><path class="cls-2" d="M368.62,255.2s-30.34,36.92-11.15,91.72l4.37-1S342.15,299.22,368.62,255.2Z"/><path class="cls-1" d="M122.51,390.22h32.63v10.27H133.25v13.28h21.89V424H133.25V447.9H122.51Z"/><path class="cls-1" d="M122.51,390.22h32.63v10.27H133.25v13.28h21.89V424H133.25V447.9H122.51Z"/><path class="cls-1" d="M185.26,448a24.83,24.83,0,0,1-8.3-1.33,18.69,18.69,0,0,1-6.6-3.9,17.26,17.26,0,0,1-4.34-6.4,23.42,23.42,0,0,1-1.54-8.82V390.22h10.74v37.84A10.26,10.26,0,0,0,176,432a9.52,9.52,0,0,0,2.09,3.16,10.19,10.19,0,0,0,3.17,2.1,10.52,10.52,0,0,0,7.9,0,10.7,10.7,0,0,0,3.2-2.1,9.79,9.79,0,0,0,3-7.09V390.22H206v37.31a23,23,0,0,1-1.58,8.82,17.71,17.71,0,0,1-10.91,10.3A24.81,24.81,0,0,1,185.26,448Z"/><path class="cls-1" d="M185.26,448a24.83,24.83,0,0,1-8.3-1.33,18.69,18.69,0,0,1-6.6-3.9,17.26,17.26,0,0,1-4.34-6.4,23.42,23.42,0,0,1-1.54-8.82V390.22h10.74v37.84A10.26,10.26,0,0,0,176,432a9.52,9.52,0,0,0,2.09,3.16,10.19,10.19,0,0,0,3.17,2.1,10.52,10.52,0,0,0,7.9,0,10.7,10.7,0,0,0,3.2-2.1,9.79,9.79,0,0,0,3-7.09V390.22H206v37.31a23,23,0,0,1-1.58,8.82,17.71,17.71,0,0,1-10.91,10.3A24.81,24.81,0,0,1,185.26,448Z"/><path class="cls-1" d="M215.67,390.22h12.17l25,39.27V390.22h10.74V447.9H252.09l-25.67-40.53V447.9H215.67Z"/><path class="cls-1" d="M215.67,390.22h12.17l25,39.27V390.22h10.74V447.9H252.09l-25.67-40.53V447.9H215.67Z"/><path class="cls-1" d="M273,390.22h15.73a35.62,35.62,0,0,1,12.95,2.21,27.69,27.69,0,0,1,9.6,6.09,25.48,25.48,0,0,1,5.93,9.12,31.73,31.73,0,0,1,2,11.42A29.34,29.34,0,0,1,317,430.52a26.69,26.69,0,0,1-6.2,9.12,29.23,29.23,0,0,1-9.52,6.05,32.38,32.38,0,0,1-12.09,2.21H273Zm10.75,10v37.76h4.19a24.11,24.11,0,0,0,8.53-1.42,18,18,0,0,0,10.55-10,19,19,0,0,0,1.46-7.47,21.75,21.75,0,0,0-1.27-7.62,15.73,15.73,0,0,0-3.87-6,17.68,17.68,0,0,0-6.55-3.91,28.39,28.39,0,0,0-9.33-1.38Z"/><path class="cls-1" d="M273,390.22h15.73a35.62,35.62,0,0,1,12.95,2.21,27.69,27.69,0,0,1,9.6,6.09,25.48,25.48,0,0,1,5.93,9.12,31.73,31.73,0,0,1,2,11.42A29.34,29.34,0,0,1,317,430.52a26.69,26.69,0,0,1-6.2,9.12,29.23,29.23,0,0,1-9.52,6.05,32.38,32.38,0,0,1-12.09,2.21H273Zm10.75,10v37.76h4.19a24.11,24.11,0,0,0,8.53-1.42,18,18,0,0,0,10.55-10,19,19,0,0,0,1.46-7.47,21.75,21.75,0,0,0-1.27-7.62,15.73,15.73,0,0,0-3.87-6,17.68,17.68,0,0,0-6.55-3.91,28.39,28.39,0,0,0-9.33-1.38Z"/><path class="cls-1" d="M252.31,286.49a25.51,25.51,0,0,1-9.6,9.55v0A25.64,25.64,0,0,1,207,284.85,50.91,50.91,0,0,0,245.66,289,47.23,47.23,0,0,0,252.31,286.49Z"/><path class="cls-1" d="M387.91,339.39a50,50,0,0,1-.4,6.27h0a1.69,1.69,0,0,1,0,.3.39.39,0,0,1,0,.15.89.89,0,0,0,0,.14.1.1,0,0,1,0,.07v0a2.45,2.45,0,0,1-2.38,1.77,2.48,2.48,0,0,1-2.49-2.47,2.07,2.07,0,0,1,0-.5,36.55,36.55,0,0,0,1.05-8.76,37,37,0,0,0-37-37,36,36,0,0,0-5.63.43c-.16,0-.33.06-.48.07a.22.22,0,0,1-.11,0l-.83.16-.39.08c-.94.18-1.87.35-2.8.54s-1.89.36-2.82.57c-1.54.31-3.07.62-4.61.95l-1.85.4c-1.56.34-3.13.69-4.67,1.05l-4.54,1q-8.79,2.13-17.41,4.58l-5.43,1.57A451.09,451.09,0,0,0,169.72,370.5a2.42,2.42,0,0,1-1.4.43,2.48,2.48,0,0,1-1-4.73l.17-.07a132.9,132.9,0,0,0,56.32-39.84,34.91,34.91,0,0,0,20.06-9.22,132.83,132.83,0,0,1,97.63-28.3h.1l1.07.11a7.84,7.84,0,0,1,1.07.14l1.63.22a.27.27,0,0,1,.12,0,49.8,49.8,0,0,1,18.36,6.91h0A50.73,50.73,0,0,1,387.91,339.39Z"/><path class="cls-1" d="M393.48,234.46c-.56-.33-1.11-.66-1.66-1A117.84,117.84,0,0,1,370,216.23l-.17-.17c-.82-.81-1.61-1.64-2.39-2.47-.34-.36-.67-.71-1-1.07q-3-3.32-5.78-6.78a117.6,117.6,0,0,1-8.37-12.1c-.33-.54-.66-1.08-1-1.63,0,0,0,0,0,0q-1.69-2.9-3.19-5.87h0a80.08,80.08,0,0,0-12.08-15.48l-.76-.74c-1.63-1.6-3.32-3.1-5.05-4.53a79.33,79.33,0,0,0-31-15.67l-.7-.18A54.47,54.47,0,0,1,259.82,112a54.56,54.56,0,0,0,33.47,40.77h0l.26.09.12,0c.71.25,1.43.51,2.14.78l.38.15a79.59,79.59,0,0,1,27.72,18.06c.64.64,1.26,1.28,1.87,1.94.41.44.82.88,1.21,1.33.23.24.45.49.66.74s.37.42.55.64l0,0,.68.82a77.33,77.33,0,0,1,5.82,7.95c.39.6.77,1.21,1.14,1.82l.07.12.48.8h0l.4.71c.4.69.78,1.39,1.16,2.09,0,0,0,0,0,0a82,82,0,0,1,3.61,7.81c.06.17.13.35.2.52s0,.15.08.22l.18.45c.08.2.15.4.22.6.27.71.53,1.42.76,2.13.1.27.19.53.27.8.26.77.5,1.53.72,2.32,0,.09.05.18.08.27s.12.37.17.55a.16.16,0,0,0,0-.07.14.14,0,0,1,0,.06c-.32-.68-.67-1.36-1.06-2l-.05-.09s0,0,0,0c-.2-.34-.41-.68-.62-1s-.45-.68-.68-1-.48-.67-.73-1l-.38-.48-.4-.48a5.85,5.85,0,0,0-.4-.47l-.42-.47-.43-.46-.41-.42,0,0-.74-.71-.61-.56-.06,0-.71-.6-.48-.38-.05,0-.11-.08-.5-.38-.46-.33-.46-.31h0c-.07-.06-.16-.11-.24-.17l-1.12-.7-.57-.33c-.58-.33-1.16-.63-1.75-.91l-.74-.34-.75-.32-1.11-.42a27,27,0,0,0-3.51-1,22,22,0,0,0,.79,4.1,1.29,1.29,0,0,0,.07.21c.21.67.46,1.34.71,2l0,.06c.11.26.23.52.35.77h0c0,.08.08.18.12.26.12.26.25.53.39.78a.05.05,0,0,1,0,0l.27.48,0,0,.34.56c.13.22.26.43.4.64s.2.3.31.46a4.84,4.84,0,0,0,.33.46h0c.09.12.18.23.26.35s0,0,0,0c.13.17.25.34.39.5s.18.22.28.32a.22.22,0,0,0,.07.09,6,6,0,0,0,.41.47c.22.25.47.51.71.75l0,0,.62.59.26.24.51.45.72.58c.5.38,1,.74,1.51,1.07l.78.48c.52.3,1.06.59,1.6.85l0,0,.93.41.09,0,.15.08h0c.2.09.39.18.57.28s.5.25.75.38l.42.22.35.2a.21.21,0,0,1,.1.06,4.39,4.39,0,0,1,.47.27l.08,0,.05,0h0c.22.13.44.25.65.39s.61.38.9.58a10.22,10.22,0,0,1,.87.59h0l.14.11.51.36.64.49c.24.18.47.37.7.56s.43.35.64.53l0,0h0l.69.62q.68.6,1.32,1.26c.33.33.66.66,1,1,.09.09.17.19.25.28a34.55,34.55,0,0,1,4,5.3,34.91,34.91,0,0,1,4,9.33,32.89,32.89,0,0,0-5.61-7.82c-.15-.18-.32-.34-.48-.5A31.56,31.56,0,0,0,348,221c-.29-.22-.59-.45-.89-.66.05.14.11.28.16.43l.08.21c.19.42.37.83.55,1.25h0a40.42,40.42,0,0,1,1.22,28l-.06.2a32.9,32.9,0,0,1-1.51,3.89,0,0,0,0,1,0,0,40.32,40.32,0,0,1-45.23,22.85h0a39.94,39.94,0,0,1-4.62-1.29,49.69,49.69,0,0,0-8.25-1.17l-.13-.1-.39,0c-.82,0-1.65-.06-2.48-.06A50.57,50.57,0,0,0,255.63,285a50.94,50.94,0,0,1,43-4.86h0c.66.22,1.31.46,2,.71h0a40.3,40.3,0,0,0,12.77,2.07h1a40.3,40.3,0,0,0,12.9-2.45l.2-.07.79-.3.64-.26.28-.12a39.44,39.44,0,0,0,5.59-2.9l.26-.16a40.37,40.37,0,0,0,16.06-19.54c.09-.28.2-.56.3-.83l0,0A25.76,25.76,0,0,1,365.24,242l.09,0a25.74,25.74,0,0,1,18.37-.62,19.31,19.31,0,0,0,8.2-1.13h0a4.37,4.37,0,0,0,.46-.18,3.32,3.32,0,0,0,1-.7A3.53,3.53,0,0,0,393.48,234.46Z"/><circle class="cls-1" cx="359.95" cy="346.92" r="2.48"/><path class="cls-1" d="M368.62,255.2s-30.34,36.92-11.15,91.72l4.37-1S342.15,299.22,368.62,255.2Z"/></svg>