<svg id="Layer_1" data-name="Layer 1" xmlns="http://www.w3.org/2000/svg" xmlns:xlink="http://www.w3.org/1999/xlink" viewBox="0 0 620 300"><defs><style>.cls-1{fill:url(#linear-gradient);}.cls-2{fill:url(#linear-gradient-2);}.cls-3{fill:url(#linear-gradient-3);}.cls-4{fill:url(#linear-gradient-4);}.cls-5{fill:#75313c;}.cls-6{fill:url(#linear-gradient-5);}.cls-7{fill:url(#linear-gradient-6);}.cls-8{fill:url(#linear-gradient-7);}.cls-9{fill:url(#linear-gradient-8);}.cls-10{fill:url(#linear-gradient-9);}</style><linearGradient id="linear-gradient" x1="288.34" y1="186.59" x2="320.97" y2="186.59" gradientUnits="userSpaceOnUse"><stop offset="0" stop-color="#e7c37c"/><stop offset="1" stop-color="#b79758"/></linearGradient><linearGradient id="linear-gradient-2" x1="330.31" y1="186.63" x2="371.87" y2="186.63" xlink:href="#linear-gradient"/><linearGradient id="linear-gradient-3" x1="381.5" y1="186.59" x2="429.38" y2="186.59" xlink:href="#linear-gradient"/><linearGradient id="linear-gradient-4" x1="438.83" y1="186.59" x2="485.06" y2="186.59" xlink:href="#linear-gradient"/><linearGradient id="linear-gradient-5" x1="57.81" y1="200.64" x2="103.14" y2="200.64" xlink:href="#linear-gradient"/><linearGradient id="linear-gradient-6" x1="16.68" y1="237.97" x2="238.74" y2="237.97" xlink:href="#linear-gradient"/><linearGradient id="linear-gradient-7" x1="106.47" y1="107.03" x2="245.26" y2="107.03" xlink:href="#linear-gradient"/><linearGradient id="linear-gradient-8" x1="208.3" y1="255.44" x2="213.27" y2="255.44" xlink:href="#linear-gradient"/><linearGradient id="linear-gradient-9" x1="201.94" y1="209.58" x2="219.45" y2="209.58" xlink:href="#linear-gradient"/></defs><path class="cls-1" d="M288.34,157.75H321V168H299.09v13.27H321v10.27H299.09v23.87H288.34Z"/><path class="cls-2" d="M351.09,215.51a25.08,25.08,0,0,1-8.3-1.33,19,19,0,0,1-6.6-3.9,17.26,17.26,0,0,1-4.34-6.4,23.42,23.42,0,0,1-1.54-8.82V157.75h10.74v37.83a10.19,10.19,0,0,0,.75,3.93,9.2,9.2,0,0,0,2.1,3.16,10.15,10.15,0,0,0,3.16,2.1,10.39,10.39,0,0,0,7.9,0,10.7,10.7,0,0,0,3.2-2.1,9.52,9.52,0,0,0,2.17-3.16,9.68,9.68,0,0,0,.79-3.93V157.75h10.75v37.31a23,23,0,0,1-1.58,8.82,18,18,0,0,1-4.35,6.4,18.55,18.55,0,0,1-6.56,3.9A25.07,25.07,0,0,1,351.09,215.51Z"/><path class="cls-3" d="M381.5,157.75h12.17l25,39.27V157.75h10.74v57.68H417.93l-25.68-40.54v40.54H381.5Z"/><path class="cls-4" d="M438.83,157.75h15.73a35.5,35.5,0,0,1,13,2.21,27.71,27.71,0,0,1,9.6,6.08,25.63,25.63,0,0,1,5.92,9.13,31.48,31.48,0,0,1,2,11.42A29.32,29.32,0,0,1,482.84,198a26.83,26.83,0,0,1-6.2,9.13,29.21,29.21,0,0,1-9.52,6A32.18,32.18,0,0,1,455,215.43h-16.2Zm10.75,9.95v37.77h4.19a24.11,24.11,0,0,0,8.53-1.42,18,18,0,0,0,10.55-10,18.94,18.94,0,0,0,1.46-7.46,22,22,0,0,0-1.26-7.63,16,16,0,0,0-3.87-6,17.86,17.86,0,0,0-6.56-3.91,28.39,28.39,0,0,0-9.33-1.38Z"/><path class="cls-5" d="M602,177.63a28.89,28.89,0,0,0-27.57-20.31,29.36,29.36,0,0,0-8.81,1.35,29,29,0,0,0-18.76,19h11.36a18,18,0,0,1,7.4-7.54,18.33,18.33,0,0,1,25,7.54,17.92,17.92,0,0,1,2.13,8.56,18.36,18.36,0,0,1-27.15,16.1V213.7a29.36,29.36,0,0,0,8.81,1.35A28.88,28.88,0,0,0,602,177.63Z"/><polygon class="cls-5" points="560.04 182.96 560.04 207.62 551.24 215.1 551.24 191.91 544.64 191.96 529.44 192.05 532.92 185.91 534.58 182.96 560.04 182.96"/><path class="cls-5" d="M555.92,183H534.58l-1.66,2.94-3.48,6.15,11.45-.06,3.75,0a18,18,0,0,1-2.52,4.91,18.35,18.35,0,1,1-.11-21.51l.08-.06a33.64,33.64,0,0,1,5.19-9.87,28.9,28.9,0,1,0,.11,41.34,27.63,27.63,0,0,0,3.85-4.6,28.48,28.48,0,0,0,4.85-16v-.71C556.06,184.64,556,183.8,555.92,183Z"/><path class="cls-5" d="M545.57,186.19a18.69,18.69,0,0,1-.93,5.77l-15.2.09,3.48-6.15,1.66-2.94h10.71a14.57,14.57,0,0,1,.25,2.72A2.91,2.91,0,0,1,545.57,186.19Z"/><path class="cls-6" d="M103.14,195a25.54,25.54,0,0,1-9.6,9.56h0a25.64,25.64,0,0,1-35.73-11.21,50.78,50.78,0,0,0,38.68,4.11A44.87,44.87,0,0,0,103.14,195Z"/><path class="cls-7" d="M238.74,247.91a49.78,49.78,0,0,1-.4,6.27v0a1.5,1.5,0,0,1,0,.29.44.44,0,0,1,0,.16.58.58,0,0,0,0,.14.11.11,0,0,1,0,.07v0a2.45,2.45,0,0,1-2.38,1.78,2.49,2.49,0,0,1-2.49-2.47,2.65,2.65,0,0,1,0-.5,36.61,36.61,0,0,0,1.05-8.76,37,37,0,0,0-37-37,36,36,0,0,0-5.63.43l-.48.07a.22.22,0,0,1-.11,0l-.83.15c-.13,0-.26,0-.39.09-.94.17-1.87.34-2.8.53s-1.89.37-2.82.57c-1.54.31-3.07.62-4.61.95l-1.85.4c-1.55.35-3.13.69-4.66,1.05l-4.55,1.06q-8.78,2.12-17.41,4.58-2.73.77-5.43,1.57A450.74,450.74,0,0,0,20.55,279a2.42,2.42,0,0,1-1.4.44,2.49,2.49,0,0,1-1-4.74,1.22,1.22,0,0,0,.17-.07A132.73,132.73,0,0,0,74.6,234.82a35,35,0,0,0,20.06-9.23,132.13,132.13,0,0,1,83-29.11,134.11,134.11,0,0,1,14.67.81.18.18,0,0,1,.1,0l1.07.1a7.84,7.84,0,0,1,1.07.14c.56.07,1.07.14,1.63.23h.12a50,50,0,0,1,18.36,6.91h0A50.73,50.73,0,0,1,238.74,247.91Z"/><path class="cls-8" d="M244.31,143c-.56-.33-1.11-.67-1.66-1a118.68,118.68,0,0,1-21.8-17.22l-.17-.18c-.81-.81-1.61-1.64-2.39-2.47-.33-.36-.67-.71-1-1.07q-3-3.3-5.78-6.78a117.48,117.48,0,0,1-8.37-12.09c-.33-.54-.66-1.09-1-1.64,0,0,0,0,0,0C201,98.58,200,96.62,199,94.64h0a80.47,80.47,0,0,0-12.09-15.47l-.76-.75c-1.63-1.59-3.32-3.1-5.05-4.53A80.06,80.06,0,0,0,167.76,65a78.72,78.72,0,0,0-17.68-6.79l-.69-.19a54.46,54.46,0,0,1-38.74-37.49,54.42,54.42,0,0,0,23.08,35.27,53.41,53.41,0,0,0,10.39,5.5h0l.26.08.12.05c.71.25,1.43.5,2.15.78l.37.14a79.62,79.62,0,0,1,27.72,18.07c.64.63,1.26,1.28,1.87,1.93.41.44.82.88,1.22,1.33.22.24.44.49.65.74s.37.42.55.64l0,0c.23.26.46.55.69.82a78.62,78.62,0,0,1,5.81,7.94q.58.9,1.14,1.83l.07.11.48.8v0c.14.24.28.47.4.71.4.69.78,1.39,1.16,2.09a.13.13,0,0,0,0,0,75.4,75.4,0,0,1,3.61,7.81c.06.17.14.34.2.52s0,.14.08.22.12.29.18.45.15.4.22.6c.27.7.53,1.41.76,2.12.1.27.19.53.27.8.26.77.5,1.54.72,2.32,0,.09.05.18.08.28s.12.36.17.54a.16.16,0,0,0,0-.07.14.14,0,0,1,0,.07c-.32-.69-.67-1.36-1.06-2,0,0,0-.07-.05-.1a0,0,0,0,0,0,0c-.2-.35-.41-.69-.62-1s-.45-.68-.68-1-.48-.66-.73-1l-.38-.49-.39-.47-.41-.48c-.13-.15-.27-.31-.42-.46l-.43-.46-.41-.43,0,0c-.24-.25-.49-.48-.74-.71s-.4-.38-.61-.56l0,0-.72-.61-.47-.38-.06,0-.11-.08-.5-.38-.46-.33-.46-.31h0l-.24-.16c-.37-.25-.75-.48-1.12-.71l-.57-.33c-.58-.32-1.16-.63-1.75-.91l-.74-.34-.75-.32c-.37-.15-.74-.29-1.1-.41a29.4,29.4,0,0,0-3.52-1,21.48,21.48,0,0,0,.8,4.11.66.66,0,0,0,.06.2c.21.68.46,1.34.72,2a.13.13,0,0,1,0,.06c.11.26.23.52.35.78h0l.12.26c.12.27.26.53.39.79a.05.05,0,0,1,0,0l.28.48s0,0,0,0c.1.18.21.37.33.56s.26.43.4.64l.31.45c.1.16.22.32.33.47h0c.09.11.18.23.26.35h0c.13.17.26.34.39.49l.28.33a.71.71,0,0,0,.07.09c.13.16.27.31.41.46s.47.51.71.75l0,0,.62.59a1.55,1.55,0,0,0,.27.24c.16.16.33.3.5.45l.72.59c.5.37,1,.73,1.51,1.06q.39.25.78.48c.52.31,1.06.59,1.6.86h0q.47.23.93.42a.25.25,0,0,1,.09,0l.15.07,0,0a5.85,5.85,0,0,1,.56.28c.26.12.51.24.75.38l.42.22.35.2a.31.31,0,0,1,.1,0l.47.27.08,0,.06,0a0,0,0,0,1,0,0c.22.12.43.25.65.39s.6.37.89.57.59.39.87.59h0l.14.11c.18.11.34.24.51.35l.64.49c.24.18.47.37.7.56l.65.53,0,0s0,0,0,0l.69.62c.45.4.89.82,1.33,1.26s.65.66,1,1a3.33,3.33,0,0,1,.25.28,35.3,35.3,0,0,1,8,14.63,32.74,32.74,0,0,0-5.61-7.83c-.15-.17-.32-.34-.48-.5a32.45,32.45,0,0,0-3.2-2.82l-.9-.67c.06.14.11.29.16.43l.08.22c.19.41.37.82.55,1.24v0a40.42,40.42,0,0,1,1.22,28l-.06.19a30.09,30.09,0,0,1-1.51,3.89,0,0,0,0,1,0,0,38.09,38.09,0,0,1-2,3.81,40.31,40.31,0,0,1-43.26,19h0a38,38,0,0,1-4.62-1.28,50.76,50.76,0,0,0-8.25-1.18l-.13-.09-.39,0c-.82,0-1.65,0-2.48,0a50.52,50.52,0,0,0-30.82,10.42,50.94,50.94,0,0,1,43-4.86h0c.66.22,1.31.46,2,.72h0a40.31,40.31,0,0,0,12.78,2.07h.95A40,40,0,0,0,178.1,189l.2-.07.79-.31.64-.26.28-.11a41.76,41.76,0,0,0,5.6-2.9l.25-.16a40.4,40.4,0,0,0,16.06-19.55c.09-.28.2-.55.3-.82,0,0,0,0,0,0a25.8,25.8,0,0,1,13.83-14.21l.09,0a25.81,25.81,0,0,1,18.37-.61,19.63,19.63,0,0,0,8.2-1.13h0l.46-.18a3.35,3.35,0,0,0,1-.71A3.52,3.52,0,0,0,244.31,143Z"/><circle class="cls-9" cx="210.78" cy="255.44" r="2.48"/><path class="cls-10" d="M219.45,163.72s-30.34,36.92-11.15,91.72l4.37-1S193,207.75,219.45,163.72Z"/></svg>